# xmcd
#
# Track frame offsets: 
#        150
#        20026
#        40958
#        70784
#        97005
#        115461
#        140111
#        155861
#
# Disc length: 2341 seconds
#
# Revision: 0
# Processed by: cddbd v1.5.2PL0 Copyright (c) Steve Scherf et al.
# Submitted via: ExactAudioCopy v1.3
#
DISCID=79092308
DTITLE=Rick Derringer - Derringer
DYEAR=1976
DGENRE=Blues Rock
TTITLE0=Sailor
TTITLE1=Envy
TTITLE2=Loosen Up Your Grip
TTITLE3=Beyond The Universe
TTITLE4=Goodbye Again
TTITLE5=Comes A Woman
TTITLE6=Let Me In
TTITLE7=You Can Have Me
EXTD=
EXTT0=
EXTT1=
EXTT2=
EXTT3=
EXTT4=
EXTT5=
EXTT6=
EXTT7=
PLAYORDER=
